<svg xmlns="http://www.w3.org/2000/svg" viewBox="0 0 32 32" id="Brain--Streamline-Twemoji" height="32" width="32">
  <desc>
    Brain Streamline Emoji: https://streamlinehq.com
  </desc>
  <path fill="#ea596e" d="M26.57422222222222 23.704c0.0026666666666666666 0.25155555555555553 -0.06222222222222223 0.5804444444444444 -0.12977777777777777 0.8515555555555555 -0.472 1.9066666666666665 -2.5679999999999996 4.046222222222221 -5.518222222222222 3.8515555555555556 -2.6737777777777776 -0.176 -4.851555555555556 -1.4595555555555555 -4.851555555555556 -3.259555555555555s2.1724444444444444 -3.259555555555555 4.851555555555556 -3.259555555555555 5.631111111111111 0.015999999999999997 5.648 1.816z" stroke-width="0.8889"></path>
  <path fill="#dd2e44" d="M20.926222222222222 22.19022222222222c-1.439111111111111 0 -4.7235555555555555 0.3982222222222222 -5.477333333333333 0.3982222222222222 -1.3315555555555554 0 -2.4115555555555557 0.8355555555555555 -2.4115555555555557 1.8666666666666667 0 0.496 0.2542222222222222 0.944 0.6613333333333333 1.2782222222222221 0 0 0.8942222222222221 0.8968888888888887 2.504888888888889 0.4666666666666667 0.7048888888888889 -0.18844444444444444 1.8515555555555556 -1.5875555555555554 3.870222222222222 -1.8097777777777777 1.0053333333333332 -0.1111111111111111 2.888888888888889 0.6666666666666666 6.199111111111111 0.6853333333333333 0.14222222222222222 -0.30577777777777776 0.17155555555555554 -0.5182222222222221 0.17155555555555554 -0.5182222222222221 0 -1.8017777777777777 -2.839111111111111 -2.367111111111111 -5.518222222222222 -2.367111111111111z" stroke-width="0.8889"></path>
  <path fill="#f4abba" d="M26.444444444444443 24.555555555555554s1.9413333333333334 -0.3937777777777778 3.148444444444444 -1.9813333333333334c1.407111111111111 -1.8515555555555556 1.222222222222222 -3.832888888888889 1.222222222222222 -3.832888888888889 1.4257777777777778 -2.6666666666666665 -0.4444444444444444 -5.167111111111111 -0.4444444444444444 -5.167111111111111C30.184888888888885 10.75911111111111 28.444444444444443 9.592888888888888 28.444444444444443 9.592888888888888c-1.1297777777777775 -2.685333333333333 -3.6293333333333333 -3.407111111111111 -3.6293333333333333 -3.407111111111111 -1.9626666666666668 -2.296 -5.444444444444444 -2.2222222222222223 -5.444444444444444 -2.2222222222222223s-3.262222222222222 -1.1955555555555555 -7.740444444444444 0.14844444444444443c-0.7404444444444443 0.2222222222222222 -3.222222222222222 0.7404444444444443 -5.037333333333333 1.8515555555555556C0.8719999999999999 9.465777777777776 0.43911111111111106 14.92711111111111 0.5191111111111111 15.815111111111111 0.9626666666666666 20.777777777777775 4.444444444444445 21.666666666666664 6.666666666666666 22.184888888888885c0.5182222222222221 1.407111111111111 2.425777777777778 4 5.851555555555556 3.037333333333333 4.222222222222222 -0.7404444444444443 6 -2 7.037333333333333 -2s3.926222222222222 1.1111111111111112 6.888888888888888 1.3333333333333333z" stroke-width="0.8889"></path>
  <g fill="#ea596e">
    <path d="M15.76622222222222 16.576c2.0693333333333332 -1.1155555555555554 3.191111111111111 -1.0115555555555553 4.181333333333333 -0.9217777777777777 0.31466666666666665 0.028444444444444442 0.6124444444444443 0.050666666666666665 0.9137777777777778 0.048888888888888885 1.7635555555555555 -0.039999999999999994 3.192 -0.7831111111111111 3.8239999999999994 -1.5022222222222221 0.16177777777777777 -0.18488888888888888 0.1431111111111111 -0.4648888888888889 -0.040888888888888884 -0.6275555555555555 -0.18311111111111109 -0.16177777777777777 -0.4631111111111111 -0.14488888888888887 -0.6275555555555555 0.039999999999999994 -0.4871111111111111 0.5546666666666666 -1.688 1.167111111111111 -3.1759999999999997 1.200888888888889 -0.26666666666666666 0.007999999999999998 -0.5342222222222222 -0.018666666666666668 -0.8115555555555556 -0.044444444444444446 -1.0622222222222222 -0.09866666666666667 -2.381333333333333 -0.21955555555555553 -4.685333333333333 1.0239999999999998 -0.5911111111111111 0.31911111111111107 -1.4017777777777776 0.4373333333333333 -2.28 0.5262222222222221 -1.952888888888889 -2.818666666666666 -0.7777777777777777 -5.273777777777777 -0.44177777777777777 -5.858666666666666 0.032888888888888884 0.0017777777777777776 0.06488888888888888 0.012444444444444444 0.09866666666666667 0.012444444444444444 0.35555555555555557 0 0.7128888888888889 -0.08711111111111111 1.0364444444444443 -0.2702222222222222 0.21333333333333332 -0.12088888888888889 0.28888888888888886 -0.39199999999999996 0.16799999999999998 -0.6053333333333334s-0.39199999999999996 -0.28888888888888886 -0.6053333333333334 -0.16799999999999998c-0.5688888888888889 0.3217777777777778 -1.3173333333333332 0.13599999999999998 -1.671111111111111 -0.4151111111111111 -0.13244444444444442 -0.2071111111111111 -0.4071111111111111 -0.26755555555555555 -0.6133333333333333 -0.13422222222222221 -0.20622222222222222 0.13244444444444442 -0.26666666666666666 0.4071111111111111 -0.13422222222222221 0.6133333333333333 0.21066666666666664 0.3297777777777778 0.5075555555555555 0.5777777777777777 0.8426666666666666 0.7439999999999999 -0.4631111111111111 0.9404444444444444 -1.3422222222222222 3.413333333333333 0.33066666666666666 6.178666666666666 -1.1768888888888889 0.11555555555555555 -2.355555555555555 0.28177777777777774 -3.2782222222222224 0.8764444444444444 -0.5955555555555555 0.38399999999999995 -1.2044444444444444 0.9457777777777778 -1.6693333333333331 1.5919999999999999 -0.5591111111111111 -0.09599999999999999 -2.606222222222222 -0.6 -2.9635555555555553 -2.872 0.2222222222222222 -0.17244444444444443 0.4017777777777778 -0.39999999999999997 0.5128888888888888 -0.6808888888888889 0.09066666666666666 -0.22844444444444445 -0.021333333333333333 -0.4862222222222222 -0.2497777777777778 -0.5768888888888889s-0.4862222222222222 0.021333333333333333 -0.5768888888888889 0.2497777777777778c-0.0791111111111111 0.19999999999999998 -0.2222222222222222 0.3457777777777778 -0.40355555555555556 0.4097777777777778 -0.17955555555555555 0.06399999999999999 -0.38311111111111107 0.042666666666666665 -0.5715555555555555 -0.06222222222222223 -0.21599999999999997 -0.12 -0.48533333333333334 -0.040888888888888884 -0.6044444444444445 0.17244444444444443 -0.11911111111111111 0.2142222222222222 -0.041777777777777775 0.48533333333333334 0.17244444444444443 0.6044444444444445 0.2524444444444444 0.14044444444444443 0.5226666666666666 0.21155555555555552 0.7911111111111111 0.21155555555555552 0.032888888888888884 0 0.06399999999999999 -0.015111111111111112 0.09688888888888889 -0.016888888888888887 0.42311111111111105 2.1448888888888886 2.1182222222222222 3.0871111111111107 3.3173333333333335 3.372444444444444 -0.1564444444444444 0.34488888888888886 -0.2622222222222222 0.7004444444444444 -0.2942222222222222 1.0595555555555554 -0.021333333333333333 0.24355555555555555 0.1591111111111111 0.46044444444444443 0.40355555555555556 0.4817777777777778l0.039999999999999994 0.0017777777777777776c0.22755555555555554 0 0.42222222222222217 -0.17333333333333334 0.44266666666666665 -0.4053333333333333 0.09599999999999999 -1.0782222222222222 1.1244444444444444 -2.2044444444444444 2.038222222222222 -2.7955555555555556 0.8568888888888888 -0.5519999999999999 2.111111111111111 -0.6684444444444444 3.325333333333333 -0.7813333333333333 1.1777777777777776 -0.10755555555555554 2.2906666666666666 -0.21066666666666664 3.1626666666666665 -0.6817777777777777zm11.436444444444444 -1.3368888888888888c-0.11644444444444445 0.2151111111111111 -0.036444444444444446 0.48533333333333334 0.17777777777777778 0.6017777777777777 0.06755555555555555 0.037333333333333336 0.14133333333333334 0.05511111111111111 0.21333333333333332 0.05511111111111111 0.1564444444444444 0 0.3084444444444444 -0.08266666666666667 0.3893333333333333 -0.23022222222222222 0.016888888888888887 -0.030222222222222223 1.6373333333333333 -3.0657777777777775 -1.3964444444444444 -5.105777777777777 -0.20266666666666666 -0.1351111111111111 -0.4791111111111111 -0.08266666666666667 -0.6168888888888888 0.12088888888888889 -0.1368888888888889 0.20355555555555555 -0.08266666666666667 0.48 0.12088888888888889 0.6168888888888888 2.350222222222222 1.5804444444444443 1.1635555555555555 3.8453333333333326 1.1119999999999999 3.941333333333333zM8.778666666666666 8.062222222222221c0.13866666666666666 0 0.27466666666666667 -0.06399999999999999 0.36088888888888887 -0.18488888888888888 1.2888888888888888 -1.7928888888888888 3.073777777777778 -1.1795555555555555 3.1493333333333333 -1.151111111111111 0.23022222222222222 0.08355555555555555 0.48355555555555557 -0.033777777777777775 0.5688888888888889 -0.2631111111111111 0.08533333333333333 -0.23022222222222222 -0.031999999999999994 -0.48533333333333334 -0.2622222222222222 -0.5706666666666667 -0.8533333333333333 -0.3164444444444444 -2.824 -0.416 -4.177777777777778 1.4666666666666666 -0.1431111111111111 0.19822222222222222 -0.09777777777777777 0.47644444444444445 0.10133333333333333 0.6195555555555555 0.0791111111111111 0.056888888888888885 0.16977777777777778 0.08355555555555555 0.25955555555555554 0.08355555555555555zm11.619555555555554 -1.678222222222222c1.9777777777777779 -0.1608888888888889 2.877333333333333 1.2728888888888887 2.918222222222222 1.3404444444444443 0.08355555555555555 0.14044444444444443 0.2311111111111111 0.21866666666666665 0.38311111111111107 0.21866666666666665 0.07644444444444444 0 0.15466666666666665 -0.01955555555555555 0.2248888888888889 -0.06133333333333334 0.21155555555555552 -0.12444444444444445 0.2826666666666667 -0.39644444444444443 0.1591111111111111 -0.608 -0.047999999999999994 -0.08088888888888889 -1.191111111111111 -1.9715555555555555 -3.7546666666666666 -1.7759999999999998 -0.24444444444444446 0.018666666666666668 -0.42666666666666664 0.2328888888888889 -0.408 0.4782222222222222 0.01955555555555555 0.24444444444444446 0.2408888888888889 0.4302222222222222 0.47733333333333333 0.408zm8.133333333333333 12.987555555555556c-0.21866666666666665 -0.012444444444444444 -0.45955555555555555 0.1608888888888889 -0.4791111111111111 0.4062222222222222 -0.0017777777777777776 0.015999999999999997 -0.1431111111111111 1.528 -1.6977777777777776 2.039111111111111 -0.2328888888888889 0.07644444444444444 -0.36 0.3271111111111111 -0.2826666666666667 0.5608888888888889 0.060444444444444446 0.18666666666666665 0.23555555555555555 0.30577777777777776 0.42222222222222217 0.30577777777777776 0.04622222222222222 0 0.09244444444444444 -0.007111111111111111 0.13866666666666666 -0.022222222222222223 2.1084444444444443 -0.6915555555555556 2.298666666666666 -2.7235555555555555 2.3057777777777777 -2.8097777777777777 0.018666666666666668 -0.24533333333333335 -0.16266666666666665 -0.46044444444444443 -0.4071111111111111 -0.48z" stroke-width="0.8889"></path>
    <path d="M6.530666666666667 15.052444444444445c-0.06399999999999999 0.23733333333333334 0.07644444444444444 0.4808888888888889 0.31377777777777777 0.5448888888888889 0.03822222222222222 0.010666666666666666 0.07733333333333332 0.015111111111111112 0.11555555555555555 0.015111111111111112 0.19644444444444442 0 0.37511111111111106 -0.13066666666666665 0.4284444444444444 -0.32888888888888884 0.1688888888888889 -0.6319999999999999 0.824 -1.0373333333333332 1.4684444444444442 -0.9013333333333333 0.2408888888888889 0.048888888888888885 0.47555555555555556 -0.10311111111111111 0.5262222222222221 -0.344 0.050666666666666665 -0.24 -0.10311111111111111 -0.47555555555555556 -0.344 -0.5262222222222221 -0.37866666666666665 -0.07999999999999999 -0.7591111111111111 -0.042666666666666665 -1.1093333333333333 0.07644444444444444 -1.0364444444444443 -1.7724444444444443 -0.8346666666666666 -3.5199999999999996 -0.832 -3.5386666666666664 0.031999999999999994 -0.24266666666666667 -0.13866666666666666 -0.4657777777777778 -0.3813333333333333 -0.4995555555555556 -0.24177777777777779 -0.029333333333333333 -0.4657777777777778 0.1368888888888889 -0.4995555555555556 0.37955555555555553 -0.011555555555555555 0.08622222222222221 -0.2488888888888889 2.0586666666666664 0.9448888888888888 4.101333333333333 -0.29688888888888887 0.26755555555555555 -0.5226666666666666 0.6168888888888888 -0.6311111111111111 1.0213333333333332zm9.93688888888889 -2.1955555555555555c0.36177777777777775 -0.3351111111111111 0.9422222222222222 -0.32888888888888884 1.2933333333333332 0.013333333333333332 0.08711111111111111 0.08355555555555555 0.19822222222222222 0.12533333333333332 0.3102222222222222 0.12533333333333332 0.11644444444444445 0 0.23199999999999998 -0.04533333333333333 0.3182222222222222 -0.1351111111111111 0.17066666666666666 -0.176 0.1671111111111111 -0.4577777777777778 -0.008888888888888889 -0.6284444444444444 -0.20444444444444443 -0.19822222222222222 -0.4488888888888889 -0.33066666666666666 -0.7084444444444444 -0.41333333333333333 0.2631111111111111 -0.9031111111111111 0.1591111111111111 -1.304 -0.08533333333333333 -2.0551111111111107 -0.042666666666666665 -0.13066666666666665 -0.08977777777777778 -0.27644444444444444 -0.13955555555555554 -0.44266666666666665l-0.026666666666666665 -0.08888888888888889c-0.32355555555555554 -1.0737777777777777 -0.5377777777777777 -1.782222222222222 0.07733333333333332 -2.782222222222222 0.1288888888888889 -0.20888888888888887 0.0631111111111111 -0.4826666666666667 -0.14577777777777778 -0.6115555555555555 -0.20533333333333334 -0.12799999999999997 -0.4817777777777778 -0.06488888888888888 -0.6115555555555555 0.14577777777777778 -0.8248888888888889 1.3404444444444443 -0.5217777777777777 2.344 -0.17066666666666666 3.5057777777777774l0.026666666666666665 0.08888888888888889c0.05244444444444444 0.17244444444444443 0.10044444444444445 0.32355555555555554 0.14488888888888887 0.45955555555555555 0.21955555555555553 0.6764444444444444 0.2862222222222222 0.9031111111111111 0.017777777777777778 1.7208888888888887 -0.32799999999999996 0.06133333333333334 -0.6417777777777777 0.20977777777777776 -0.8977777777777778 0.44799999999999995 -0.17955555555555555 0.1671111111111111 -0.18933333333333333 0.4488888888888889 -0.022222222222222223 0.6284444444444444 0.16799999999999998 0.17955555555555555 0.4497777777777778 0.18844444444444444 0.6284444444444444 0.021333333333333333zm5.657777777777778 -2.653333333333333c0.25866666666666666 0 0.5199999999999999 -0.05422222222222222 0.7635555555555555 -0.16977777777777778 0.2222222222222222 -0.10488888888888888 0.3173333333333333 -0.36977777777777776 0.21244444444444444 -0.592 -0.104 -0.2222222222222222 -0.3724444444444444 -0.31466666666666665 -0.5911111111111111 -0.21244444444444444 -0.4462222222222222 0.20977777777777776 -0.9964444444444444 0.027555555555555555 -1.230222222222222 -0.4062222222222222 -0.11644444444444445 -0.21688888888888888 -0.38755555555555554 -0.296 -0.6017777777777777 -0.1822222222222222 -0.21599999999999997 0.11555555555555555 -0.29777777777777775 0.3857777777777778 -0.18133333333333332 0.6017777777777777 0.15999999999999998 0.2986666666666667 0.3982222222222222 0.5342222222222222 0.6755555555555556 0.6977777777777777 -0.47733333333333333 1.16 -0.20622222222222222 2.392 0.015111111111111112 3.0453333333333332 0.06222222222222223 0.18577777777777776 0.23555555555555555 0.3022222222222222 0.4213333333333333 0.3022222222222222 0.04711111111111111 0 0.09422222222222222 -0.007111111111111111 0.14222222222222222 -0.02311111111111111 0.2328888888888889 -0.0782222222222222 0.35733333333333334 -0.33066666666666666 0.2782222222222222 -0.5626666666666666 -0.14933333333333335 -0.44266666666666665 -0.43911111111111106 -1.5608888888888888 -0.0017777777777777776 -2.512 0.033777777777777775 0.0017777777777777776 0.06488888888888888 0.013333333333333332 0.09777777777777777 0.013333333333333332zm4.263999999999999 8.381333333333334c-0.016888888888888887 -0.24444444444444446 -0.22844444444444445 -0.4373333333333333 -0.472 -0.4151111111111111 -0.9013333333333333 0.06399999999999999 -1.6693333333333331 -0.6195555555555555 -1.7306666666666666 -1.5137777777777777 -0.017777777777777778 -0.24444444444444446 -0.23555555555555555 -0.42666666666666664 -0.4737777777777778 -0.41333333333333333 -0.24444444444444446 0.016888888888888887 -0.4293333333333333 0.22933333333333333 -0.41333333333333333 0.4737777777777778 0.036444444444444446 0.5244444444444444 0.23644444444444446 0.9973333333333334 0.5404444444444444 1.382222222222222 -0.7146666666666667 0.8408888888888888 -1.6506666666666665 1.08 -2.1724444444444444 1.1413333333333333 -0.4613333333333333 0.05511111111111111 -0.8648888888888888 0.007999999999999998 -1.3315555555555554 -0.04711111111111111 -0.4275555555555555 -0.048888888888888885 -0.911111111111111 -0.10488888888888888 -1.5093333333333332 -0.08711111111111111l-0.0044444444444444444 0.0008888888888888888c-0.017777777777777778 -0.2542222222222222 -0.0782222222222222 -0.6248888888888888 -0.2711111111111111 -0.9333333333333333 -0.12977777777777777 -0.2071111111111111 -0.40444444444444444 -0.2702222222222222 -0.6124444444444443 -0.14044444444444443 -0.2071111111111111 0.12977777777777777 -0.2711111111111111 0.40444444444444444 -0.14044444444444443 0.6124444444444443 0.11911111111111111 0.1911111111111111 0.14133333333333334 0.496 0.14133333333333334 0.6444444444444444 -0.44799999999999995 0.1608888888888889 -0.8355555555555555 0.3973333333333333 -1.1857777777777778 0.6257777777777777 -0.6257777777777777 0.4071111111111111 -1.119111111111111 0.7288888888888888 -1.861333333333333 0.5617777777777777 -0.6719999999999999 -0.15377777777777776 -1.3448888888888888 -0.18488888888888888 -1.9155555555555552 -0.10488888888888888 -0.08888888888888889 -0.2231111111111111 -0.22933333333333333 -0.4897777777777778 -0.4462222222222222 -0.6951111111111111 -0.17866666666666667 -0.1688888888888889 -0.45955555555555555 -0.16177777777777777 -0.6284444444444444 0.017777777777777778 -0.16799999999999998 0.17777777777777778 -0.1608888888888889 0.45955555555555555 0.017777777777777778 0.6284444444444444 0.07644444444444444 0.072 0.1368888888888889 0.1768888888888889 0.18577777777777776 0.28177777777777774 -0.9804444444444443 0.40355555555555556 -1.4719999999999998 1.0782222222222222 -1.495111111111111 1.1111111111111112 -0.14222222222222222 0.1991111111111111 -0.0951111111111111 0.4737777777777778 0.10222222222222221 0.6168888888888888 0.0782222222222222 0.055999999999999994 0.1688888888888889 0.08355555555555555 0.25955555555555554 0.08355555555555555 0.13777777777777778 0 0.2737777777777778 -0.0631111111111111 0.36088888888888887 -0.1822222222222222 0.0044444444444444444 -0.007111111111111111 0.49244444444444446 -0.6604444444444444 1.455111111111111 -0.9244444444444444 0.4977777777777778 -0.1368888888888889 1.2115555555555555 -0.12533333333333332 1.9075555555555554 0.032888888888888884 0.19466666666666665 0.044444444444444446 0.37511111111111106 0.059555555555555556 0.5502222222222222 0.06222222222222223 0.08266666666666667 0.19377777777777777 0.11466666666666667 0.42399999999999993 0.11911111111111111 0.5093333333333333 0.014222222222222221 0.23644444444444446 0.20977777777777776 0.4195555555555555 0.44355555555555554 0.4195555555555555l0.023999999999999997 -0.0008888888888888888c0.24444444444444446 -0.013333333333333332 0.43199999999999994 -0.22044444444444444 0.4204444444444444 -0.4648888888888889 -0.0026666666666666666 -0.044444444444444446 -0.020444444444444442 -0.3075555555555555 -0.11555555555555555 -0.6097777777777778 0.4097777777777778 -0.14844444444444443 0.7662222222222221 -0.3804444444444444 1.1013333333333333 -0.5982222222222222 0.5084444444444444 -0.33155555555555555 0.9893333333333333 -0.6453333333333333 1.6177777777777778 -0.6657777777777777 0.5262222222222221 -0.018666666666666668 0.96 0.031999999999999994 1.3786666666666665 0.08088888888888889 0.4213333333333333 0.048888888888888885 0.8355555555555555 0.08088888888888889 1.2924444444444443 0.05422222222222222 0.08088888888888889 0.2248888888888889 0.07466666666666667 0.5253333333333333 0.06222222222222223 0.6257777777777777 -0.029333333333333333 0.24266666666666667 0.14222222222222222 0.4648888888888889 0.3857777777777778 0.49688888888888894 0.018666666666666668 0.0026666666666666666 0.037333333333333336 0.0035555555555555553 0.055999999999999994 0.0035555555555555553 0.21955555555555553 0 0.4106666666666667 -0.16266666666666665 0.43999999999999995 -0.38666666666666666 0.007111111111111111 -0.05511111111111111 0.05244444444444444 -0.4551111111111111 -0.05244444444444444 -0.8719999999999999 0.6382222222222221 -0.17155555555555554 1.4293333333333333 -0.5439999999999999 2.0844444444444443 -1.3075555555555556 0.38311111111111107 0.23466666666666666 0.8302222222222222 0.3724444444444444 1.3057777777777777 0.3724444444444444 0.05511111111111111 0 0.1111111111111111 -0.0017777777777777776 0.16622222222222222 -0.005333333333333333 0.24444444444444446 -0.015999999999999997 0.4293333333333333 -0.22666666666666666 0.41333333333333333 -0.472z" stroke-width="0.8889"></path>
  </g>
</svg>