<svg width="180" height="180" viewBox="0 0 180 180" fill="none" xmlns="http://www.w3.org/2000/svg">
<path d="M90 5.625C117.928 5.625 140.625 28.3219 140.625 56.25V115.312H39.375V56.25C39.375 28.3219 62.0719 5.625 90 5.625ZM64.6875 73.125C60.0469 73.125 56.25 77.85 56.25 83.6719C56.25 89.4938 60.0469 94.2188 64.6875 94.2188C69.3281 94.2188 73.125 89.4938 73.125 83.6719C73.125 77.85 69.3281 73.125 64.6875 73.125ZM115.312 73.125C110.672 73.125 106.875 77.85 106.875 83.6719C106.875 89.4938 110.672 94.2188 115.312 94.2188C119.953 94.2188 123.75 89.4938 123.75 83.6719C123.75 77.85 119.953 73.125 115.312 73.125Z" fill="#715CD7"/>
<path d="M47.8125 90V153.281C47.8125 160.284 42.1594 165.938 35.1562 165.938C28.1531 165.938 22.5 160.284 22.5 153.281V149.062" stroke="#715CD7" stroke-width="16.875" stroke-miterlimit="10" stroke-linecap="round"/>
<path d="M132.188 90V153.281C132.188 160.284 137.841 165.938 144.844 165.938C151.847 165.938 157.5 160.284 157.5 153.281V149.062" stroke="#715CD7" stroke-width="16.875" stroke-miterlimit="10" stroke-linecap="round"/>
<path d="M75.9087 98.4375V149.062" stroke="#715CD7" stroke-width="16.875" stroke-miterlimit="10" stroke-linecap="round"/>
<path d="M104.091 98.4375V149.062" stroke="#715CD7" stroke-width="16.875" stroke-miterlimit="10" stroke-linecap="round"/>
</svg>
