<?xml version="1.0" encoding="UTF-8" standalone="no"?>
<!DOCTYPE svg PUBLIC "-//W3C//DTD SVG 1.1//EN" "http://www.w3.org/Graphics/SVG/1.1/DTD/svg11.dtd">
<svg width="100%" height="100%" viewBox="0 0 412 25" version="1.1" xmlns="http://www.w3.org/2000/svg" xmlns:xlink="http://www.w3.org/1999/xlink" xml:space="preserve" xmlns:serif="http://www.serif.com/" style="fill-rule:evenodd;clip-rule:evenodd;stroke-linejoin:round;stroke-miterlimit:2;">
    <g id="Artboard1" transform="matrix(1,0,0,1,-0.125,0)">
        <rect x="0.125" y="0" width="411.387" height="25" style="fill:none;"/>
        <clipPath id="_clip1">
            <rect x="0.125" y="0" width="411.387" height="25"/>
        </clipPath>
        <g clip-path="url(#_clip1)">
            <g id="Logo" transform="matrix(1,0,0,1,0.125,0)">
                <g id="Group-8" transform="matrix(1,0,0,1,0.125,0)">
                    <g id="sri-copy">
                        <g id="Group" transform="matrix(1,0,0,1,30.1453,0)">
                            <path id="Path" d="M16.12,12.391C14.271,11.311 12.255,10.533 10.152,10.088C5.913,9.046 5.188,8.224 5.188,6.743C5.188,4.879 7.029,3.453 9.316,3.453C11.881,3.453 13.443,4.715 13.722,6.961L13.778,7.565L18.074,7.565L18.074,6.853C18.074,2.686 14.727,0 9.539,0C4.63,0 0.893,2.96 0.893,6.853C0.889,8.641 1.709,10.334 3.123,11.458C4.462,12.5 5.8,12.883 8.701,13.542L9.147,13.651C10.461,13.873 11.726,14.318 12.884,14.967C13.88,15.499 14.485,16.539 14.446,17.653C14.446,19.627 12.048,21.491 9.482,21.491C8.256,21.568 7.044,21.197 6.079,20.449C5.078,19.783 4.474,18.676 4.462,17.489L4.462,16.776L0,16.776L0.056,17.544C0.279,21.984 4.072,25 9.482,25C14.837,25 18.741,21.875 18.741,17.599C18.706,15.565 17.744,13.653 16.12,12.391Z" style="fill:rgb(13,13,27);fill-rule:nonzero;"/>
                            <g id="Rectangle" transform="matrix(1,0,0,1,45.6823,0.383333)">
                                <rect x="0" y="0" width="4.295" height="24.123" style="fill:rgb(13,13,27);"/>
                            </g>
                            <g id="Path1" serif:id="Path" transform="matrix(1,0,0,1,21.8656,0.383333)">
                                <path d="M12.996,15.516C17.514,14.803 20.582,11.897 20.582,8.059C20.425,4.792 18.26,1.948 15.116,0.877C12.717,0 11.212,0 7.921,0L0,0L0,24.123L4.295,24.123L4.295,3.508L8.478,3.508C11.155,3.508 12.104,3.618 13.666,4.33C15.194,4.957 16.231,6.379 16.343,8.003C16.208,9.649 15.155,11.085 13.61,11.731C12.271,12.334 11.044,12.444 7.53,12.444L4.742,12.444L15.563,24.122L21.086,24.122L12.996,15.516Z" style="fill:rgb(13,13,27);fill-rule:nonzero;"/>
                            </g>
                        </g>
                        <g id="Group1" serif:id="Group" transform="matrix(1,0,0,1,0,2.34375)">
                            <path id="Path2" serif:id="Path" d="M19.832,6.25L7.421,6.25C4.778,6.25 3.991,5.454 1.687,3.124L0,1.421L1.406,0L3.093,1.705C5.285,3.921 5.622,4.261 7.421,4.261L19.832,4.261L19.832,6.25Z" style="fill:rgb(13,13,27);fill-rule:nonzero;"/>
                        </g>
                        <g id="Group2" serif:id="Group" transform="matrix(1,0,0,1,10.3128,12.5)">
                            <rect id="Rectangle1" serif:id="Rectangle" x="0" y="0" width="14.279" height="1.563" style="fill:rgb(13,13,27);"/>
                        </g>
                        <g id="Group3" serif:id="Group" transform="matrix(1,0,0,1,3.96648,14.8438)">
                            <path id="Path3" serif:id="Path" d="M19.253,8.594L17.606,6.93C15.465,4.768 15.136,4.436 13.325,4.436L5.599,4.436C3.018,4.436 2.25,3.66 0,1.386L1.373,0C3.514,2.163 3.842,2.494 5.654,2.494L13.38,2.494C15.96,2.494 16.729,3.271 18.979,5.544L20.626,7.207L19.253,8.594Z" style="fill:rgb(13,13,27);fill-rule:nonzero;"/>
                        </g>
                        <g id="Group4" serif:id="Group" transform="matrix(1,0,0,1,126.134,0.78125)">
                            <path id="Path4" serif:id="Path" d="M2.511,2.092L5.934,2.092C7.515,1.957 9.098,2.324 10.443,3.137C11.42,3.912 12.003,5.056 12.041,6.275C11.995,7.659 11.221,8.925 9.986,9.633C9.016,10.183 7.932,10.348 5.649,10.348L5.021,10.348L5.021,12.55L5.592,12.55C8.331,12.55 9.244,12.659 10.443,13.1C12.227,13.745 13.409,15.39 13.41,17.228C13.352,18.97 12.298,20.539 10.672,21.301C9.182,21.854 7.583,22.08 5.992,21.962L5.021,21.962L5.021,24.163L6.277,24.163C9.815,24.163 11.184,23.888 12.954,22.733C14.819,21.484 15.911,19.418 15.864,17.229C15.928,14.594 14.257,12.209 11.698,11.284C13.433,10.242 14.49,8.411 14.495,6.44C14.495,2.478 11.299,0 6.277,0L0,0L0,24.219L2.511,24.219L2.511,2.092Z" style="fill:rgb(13,13,27);fill-rule:nonzero;"/>
                        </g>
                        <g id="Group5" serif:id="Group" transform="matrix(1,0,0,1,85.676,0)">
                            <g id="Rectangle2" serif:id="Rectangle" transform="matrix(1,0,0,1,3.81728,22.0223)">
                                <rect x="0" y="0" width="8.875" height="2.196" style="fill:rgb(13,13,27);"/>
                            </g>
                            <rect id="Rectangle3" serif:id="Rectangle" x="0" y="0" width="2.461" height="24.164" style="fill:rgb(13,13,27);"/>
                        </g>
                        <g id="Group6" serif:id="Group" transform="matrix(1,0,0,1,99.9553,0)">
                            <path id="Path5" serif:id="Path" d="M15.7,11.698L18.326,11.698L13.185,0L10.504,0L0,24.219L2.514,24.219L11.899,2.802L15.7,11.698Z" style="fill:rgb(13,13,27);fill-rule:nonzero;"/>
                            <g id="Path6" serif:id="Path" transform="matrix(1,0,0,1,8.77119,13.8388)">
                                <path d="M0.95,0L0,2.196L8.771,2.196L12.346,10.379L15.028,10.379L10.504,0L0.95,0Z" style="fill:rgb(13,13,27);fill-rule:nonzero;"/>
                            </g>
                        </g>
                    </g>
                    <g id="eth-copy" transform="matrix(1,0,0,1,178,0)">
                        <path id="path4" d="M54.976,9.496L49.48,9.496L51.41,0L4.911,0L0,24.531L18.537,24.531L19.798,18.201L8.844,18.201L9.47,15.035L20.431,15.035L21.544,9.496L10.608,9.496L11.233,6.331L28.639,6.331L24.995,24.531L32.554,24.531L36.196,6.331L42.541,6.331L38.9,24.531L46.516,24.531L48.401,15.035L53.895,15.035L52.012,24.531L59.592,24.531L64.506,0L56.905,0L54.976,9.496ZM87.407,3.165L89.935,3.165L90.562,0L88.045,0L87.407,3.165ZM93.892,3.165L96.422,3.165L97.047,0L94.53,0L93.892,3.165ZM117.542,3.165L120.071,3.165L120.699,0L118.181,0L117.542,3.165ZM130.199,7.841C125.787,7.841 122.691,10.958 121.699,16.397C121.543,17.248 121.464,18.111 121.462,18.976C121.462,22.691 123.708,25 127.33,25C129.425,25.005 131.431,24.159 132.887,22.656L132.909,22.632L131.507,20.917L131.481,20.887L131.454,20.915C130.485,22.127 129.017,22.833 127.463,22.835C125.737,22.835 123.892,21.801 123.892,18.908C123.898,18.069 123.987,17.232 124.158,16.411C124.418,14.648 125.162,12.991 126.309,11.625C127.244,10.596 128.571,10.01 129.962,10.009C131.309,9.948 132.571,10.666 133.204,11.854L133.225,11.887L135.011,10.374L135.036,10.352L135.017,10.325C133.972,8.697 132.135,7.749 130.199,7.841ZM146.338,7.485C144.543,7.397 142.798,8.087 141.55,9.378L143.447,0L141.002,0L136.089,24.531L138.534,24.531L140.574,14.226C141.447,9.883 144.823,9.663 145.49,9.663C146.294,9.581 147.093,9.861 147.671,10.426C148.248,10.992 148.543,11.784 148.476,12.589C148.463,13.112 148.406,13.633 148.304,14.146L146.23,24.531L148.672,24.531L150.818,13.92C150.928,13.369 150.986,12.809 150.989,12.247C151.078,10.98 150.621,9.735 149.733,8.826C148.844,7.916 147.609,7.429 146.338,7.485ZM113.372,24.491L113.364,24.532L115.775,24.532L119.065,7.914L116.695,7.914L113.372,24.491ZM69.15,10.243L69.143,10.288L77.327,10.288L66.537,22.526L66.532,22.533L66.127,24.532L77.748,24.532L78.206,22.158L69.518,22.158L80.34,9.92L80.345,9.912L80.752,7.914L69.602,7.914L69.15,10.243ZM109.357,7.712C107.593,7.665 105.908,8.445 104.802,9.818L105.176,7.951L105.183,7.914L102.804,7.914L99.516,24.491L99.509,24.532L101.924,24.532L103.935,14.364C104.449,11.756 106.446,9.862 108.687,9.862C109.604,9.84 110.472,10.275 111.002,11.023L111.025,11.053L112.983,9.293L112.964,9.269C112.066,8.223 110.736,7.649 109.357,7.712ZM94.792,7.914L97.238,7.914L97.231,7.954L93.946,24.532L91.566,24.532L91.574,24.491L91.889,22.766C90.657,24.094 88.902,24.813 87.091,24.732C85.837,24.788 84.619,24.306 83.743,23.409C82.868,22.511 82.418,21.283 82.508,20.034C82.515,19.528 82.573,19.025 82.68,18.531L82.708,18.38L84.787,7.914L87.2,7.914L87.192,7.954L85.148,18.16C85.051,18.667 84.996,19.18 84.984,19.696C84.922,20.494 85.218,21.278 85.793,21.836C86.369,22.394 87.163,22.667 87.96,22.582C88.614,22.582 91.916,22.364 92.778,18.077L94.792,7.914Z" style="fill:rgb(0,0,15);fill-opacity:0.94;fill-rule:nonzero;"/>
                    </g>
                </g>
                <g transform="matrix(0.0760997,0,0,-0.0760997,365.16,1.68048)">
                    <path d="M0.102,20L0.102,0L609.102,0L609.102,20L0.102,20Z" style="fill-rule:nonzero;"/>
                </g>
                <g transform="matrix(0.0760997,0,0,-0.0760997,365.16,13.6662)">
                    <path d="M346.199,99.699C336.898,94.699 337.199,80.898 346.602,76.898C356.5,72.801 367.102,78.801 367.102,88.5C367.102,98.5 355.5,104.699 346.199,99.699Z" style="fill-rule:nonzero;"/>
                </g>
                <g transform="matrix(0.0760997,0,0,-0.0760997,365.16,22.4557)">
                    <path d="M57.102,211L57.102,82L79.102,82L79.102,211L57.102,211Z" style="fill-rule:nonzero;"/>
                </g>
                <g transform="matrix(0.0760997,0,0,-0.0760997,365.16,17.7453)">
                    <path d="M512.898,138.102L512.602,127L503.199,132.602C498.102,135.602 493.5,138.102 493.102,138.102C492.602,138.102 490.801,135.602 489,132.5C486.398,127.903 486.102,126.704 487.199,126C488,125.5 492.102,123.301 496.301,121.102C500.5,118.903 504.199,116.704 504.5,116.301C504.699,115.903 500.699,113.204 495.5,110.301C490.301,107.403 486.102,104.801 486.102,104.5C486.102,104.204 487.699,101.602 489.602,98.602L493,93.204L502.301,98.602C507.398,101.602 511.898,104.102 512.398,104.102C512.801,104.102 513.102,99.102 513.102,93.102L513.102,82L519.398,82.301L525.602,82.602L525.898,93.403C526,99.301 526.5,104.102 526.898,104.102C527.301,104 531.699,101.602 536.602,98.602C546.602,92.704 546.102,92.602 550.398,100.301L553.102,105L543.602,110.102C538.398,112.903 534.102,115.5 534.102,115.903C534.102,116.301 538.199,118.801 543.102,121.403C548.102,124.102 552.102,126.704 552.102,127.301C552.102,129.102 546.699,138.102 545.602,138.102C545.102,138 540.602,135.602 535.602,132.602L526.602,127.301L526.301,138.204L526,149.102L513.199,149.102L512.898,138.102Z" style="fill-rule:nonzero;"/>
                </g>
                <g transform="matrix(0.0760997,0,0,-0.0760997,365.16,25.1114)">
                    <path d="M138.102,209.296C128.102,207.199 118.102,201.796 112.301,195.398C103.801,186.097 100.199,176.398 100.102,162.796C100,135.398 120.602,115.898 149.602,115.898C172.801,115.898 190.801,128.296 197.102,148.597C199.301,155.796 199.699,167.5 198,174.796C195.199,187.097 185.199,199.597 173.898,204.898C161.898,210.5 150.301,212 138.102,209.296ZM162.602,188.796C174.398,182.898 179.898,167.699 175.5,152.796C173.398,145.699 165.602,137.699 159.102,135.898C144.5,131.796 131.199,137 124.898,149.296C121.898,155.097 121.301,166.898 123.602,174C126,181 133.102,188.199 139.699,190.296C146.602,192.5 156.5,191.796 162.602,188.796Z" style="fill-rule:nonzero;"/>
                </g>
                <g transform="matrix(0.0760997,0,0,-0.0760997,365.16,27.7978)">
                    <path d="M253.102,245.5C238.199,243.199 225.301,235.199 218.801,224.097C214.699,217.097 212.801,208.097 213.301,198.199C214.102,183.801 220.102,172.597 231,165C239.199,159.301 246.102,157 257.199,156.398C269,155.801 278.398,158.301 285.5,163.699C288.102,165.597 290.301,167.199 290.602,167.199C291.801,167.199 291,156 289.398,151.301C285.898,140.301 276.898,135.199 261.199,135.199C251,135.199 244.199,136.898 234.301,141.801C230.199,143.801 226.801,145.199 226.602,145C225.5,143.898 218.102,130.5 218.102,129.597C218.102,127.801 231.301,121.301 239.801,119C251.398,115.801 274.898,115.898 284.102,119.097C299.602,124.398 308.301,134.199 311.699,150.097C312.699,155.199 313.102,166.801 313.102,201.5L313.102,246.301L302.898,246L292.602,245.699L292,233.097L288.5,236.097C280.102,243.597 265.398,247.398 253.102,245.5ZM272.801,225.699C284.5,222.199 291.5,212.801 291.398,200.699C291.398,193.699 289.602,189 285.102,183.801C271.801,168.699 243,173.398 236.699,191.699C229.102,214 249,232.801 272.801,225.699Z" style="fill-rule:nonzero;"/>
                </g>
                <g transform="matrix(0.0760997,0,0,-0.0760997,365.16,25.127)">
                    <path d="M342.801,210.5C342.398,210.102 342.102,188.903 342.102,163.403L342.102,117.102L364.102,117.102L363.898,163.903L363.602,210.602L353.5,210.903C348,211 343.199,210.903 342.801,210.5Z" style="fill-rule:nonzero;"/>
                </g>
                <g transform="matrix(0.0760997,0,0,-0.0760997,365.16,25.3172)">
                    <path d="M425.398,212.602C405.398,209 390.699,195.403 386.5,176.704C381.699,155.301 391.5,133.5 410,124.204C426.5,115.801 451.398,117.102 464.398,127C468.398,130 475.102,137.903 475.102,139.5C475.102,140 471.5,142.403 467,145L458.898,149.704L455.5,145.801C450.602,140 444.199,137.301 435.5,137.301C418.199,137.403 407.602,148.301 407.699,166.102C407.699,175.403 409.801,181 415.199,186.5C420.602,192 426.301,194.102 435.602,194.102C444.699,194.102 449.199,192.204 455,186.204C456.898,184.204 458.898,182.602 459.301,182.602C460.898,182.602 475,191.102 475,192.102C475,194.102 469,201 464,204.704C455.199,211.403 438.102,214.801 425.398,212.602Z" style="fill-rule:nonzero;"/>
                </g>
                <g transform="matrix(0.0760997,0,0,-0.0760997,365.16,47.7969)">
                    <path d="M0.301,313.301L0.602,303.5L304.898,303.199L609.102,303L609.102,323L0,323L0.301,313.301Z" style="fill-rule:nonzero;"/>
                </g>
            </g>
        </g>
    </g>
</svg>
